<svg id="Layer_1" data-name="Layer 1" xmlns="http://www.w3.org/2000/svg" viewBox="0 0 35.96 22"><defs><style>.cls-1{fill:#fff;}</style></defs><title>dialplan-placeholder2</title><path class="cls-1" d="M18.37,0V1.5c6.74,0,12.42,1.89,14.82,4.92a5.9,5.9,0,0,1,1.11,5.19,1.22,1.22,0,0,1-1.13.35,14.76,14.76,0,0,1-3.54-.68c-0.58-.16-2-1.13-2.45-6.54l-0.09-1-1-.28A31,31,0,0,0,17.74,2.1,25.39,25.39,0,0,0,9.88,3.44l-1,.33v1.1c0,3-1,6.59-2.47,7a9.55,9.55,0,0,1-2.63.43,2.24,2.24,0,0,1-2-.74,5.39,5.39,0,0,1,1-4.81C5.14,3.56,11.3,1.5,18.37,1.5V0M13.5,7.35V8.5h9V7.81l4.05,7.52L26.49,20.5h-17l0-5.19,4-8m4.49,12A4.32,4.32,0,1,0,13.67,15h0A4.32,4.32,0,0,0,18,19.32M18.37,0C8.36,0-1.81,4.17.29,12.12c0.59,1.24,1.92,1.7,3.44,1.7a11.07,11.07,0,0,0,3.06-.49c2.59-.76,3.53-5.45,3.54-8.46A24.11,24.11,0,0,1,17.74,3.6a29.63,29.63,0,0,1,7.95,1.27c0.25,2.9,1,7.13,3.54,7.85a15.77,15.77,0,0,0,3.94.74,2.5,2.5,0,0,0,2.55-1.34C37.65,3.92,28.08,0,18.37,0h0ZM15,5l-2.09.21L8,15l0,7H28L28,15,22.77,5.16,21,5.08,21,7H15V5h0Zm3,12.82A2.82,2.82,0,1,1,20.81,15h0A2.82,2.82,0,0,1,18,17.82h0Z" transform="translate(-0.01)"/></svg>