<svg xmlns="http://www.w3.org/2000/svg" width="35.969" height="22" viewBox="0 0 35.969 22">
  <defs>
    <style>
      .cls-1 {
        fill-rule: evenodd;
      }
    </style>
  </defs>
  <path class="cls-1" d="M25.37,14v1.5c6.741,0,12.422,1.887,14.824,4.925a5.9,5.9,0,0,1,1.11,5.188,1.222,1.222,0,0,1-1.133.35,14.759,14.759,0,0,1-3.54-.68c-0.582-.163-1.987-1.126-2.454-6.54L34.087,17.7l-1.006-.277A30.989,30.989,0,0,0,24.74,16.1a25.394,25.394,0,0,0-7.859,1.338l-1.046.329,0,1.1c-0.01,3.043-1,6.593-2.47,7.026a9.546,9.546,0,0,1-2.634.428A2.243,2.243,0,0,1,8.7,25.579a5.386,5.386,0,0,1,.976-4.814c2.459-3.2,8.619-5.264,15.695-5.265V14m-4.875,7.351V22.5H29.5l-0.009-.695,4.052,7.524L33.492,34.5h-17l-0.026-5.188,4.028-7.96m4.494,11.971A4.322,4.322,0,1,0,20.672,29a4.324,4.324,0,0,0,4.317,4.322M25.368,14C15.357,14,5.189,18.169,7.29,26.123c0.594,1.241,1.92,1.7,3.438,1.7a11.067,11.067,0,0,0,3.058-.489c2.587-.765,3.534-5.455,3.543-8.46A24.11,24.11,0,0,1,24.74,17.6a29.631,29.631,0,0,1,7.945,1.269c0.251,2.9.962,7.133,3.543,7.855a15.772,15.772,0,0,0,3.943.735,2.5,2.5,0,0,0,2.553-1.34C44.652,17.925,35.084,14,25.368,14h0Zm-3.375,5-2.092.207-4.933,9.75L15,36H34.975l0.072-7.043-5.275-9.794-1.812-.082L27.985,21H21.993V19h0Zm3,12.822A2.822,2.822,0,1,1,27.807,29a2.821,2.821,0,0,1-2.819,2.822h0Z" transform="translate(-7 -14)"/>
</svg>
