<svg xmlns="http://www.w3.org/2000/svg" width="136" height="71.84" viewBox="0 0 136 71.84">
  <defs>
    <style>
      .cls-1, .cls-2 {
        fill-rule: evenodd;
      }

      .cls-2 {
        opacity: 0.2;
      }
    </style>
  </defs>
  <path class="cls-1" d="M4871.33,5212.07l8.48,8.47a1.994,1.994,0,0,1-2.82,2.82l-8.49-8.47-8.49,8.47a1.994,1.994,0,0,1-2.82-2.82l8.48-8.47-8.48-8.47a1.994,1.994,0,0,1,2.82-2.82l8.49,8.47,8.49-8.47a1.994,1.994,0,0,1,2.82,2.82Z" transform="translate(-4775 -5176.16)"/>
  <path id="Rounded_Rectangle_2" data-name="Rounded Rectangle 2" class="cls-2" d="M4875,5248c-0.15,0-.3-0.01-0.46-0.01l-0.54.01h-59v-0.07a8.036,8.036,0,0,1-4.31-1.95l-0.55-.1L4779,5219.99v-0.46a8.956,8.956,0,0,1,0-14.92v-0.46l31.14-25.89,0.55-.1a7.868,7.868,0,0,1,5.86-2l0.45-.02h58.19l0.81,0.02A35.926,35.926,0,0,1,4875,5248Zm-3-4.05,2.34,0.04c0.22,0.01.44,0.01,0.66,0.01a31.935,31.935,0,1,0,0-63.87c-0.22,0-.44.01-0.66,0.02l-2.34.07v-0.08h-53v0.36l-2.33-.3a4.364,4.364,0,0,0-.67-0.07,3.952,3.952,0,0,0-2.91,1.27l-0.46.49-0.77.13-28.86,24v1.01l-1.14.54a4.97,4.97,0,0,0,0,9l1.14,0.54v1.01l28.86,24,0.77,0.13,0.46,0.49A3.943,3.943,0,0,0,4816,5244a4.04,4.04,0,0,0,.66-0.06l2.34-.4V5244h53v-0.05Z" transform="translate(-4775 -5176.16)"/>
</svg>
