<svg xmlns="http://www.w3.org/2000/svg" width="40" height="37" viewBox="0 0 40 37">
  <defs>
    <style>
      .cls-1 {
        fill: #fff;
        fill-rule: evenodd;
      }
    </style>
  </defs>
  <path id="list" class="cls-1" d="M5862.5,1181a4.5,4.5,0,1,1-4.5,4.5A4.494,4.494,0,0,1,5862.5,1181Zm0,2a2.5,2.5,0,1,1-2.5,2.5A2.5,2.5,0,0,1,5862.5,1183Zm10.5,2h24a1,1,0,0,1,0,2h-24A1,1,0,0,1,5873,1185Zm-10.5,10a4.5,4.5,0,1,1-4.5,4.5A4.494,4.494,0,0,1,5862.5,1195Zm0,2a2.5,2.5,0,1,1-2.5,2.5A2.5,2.5,0,0,1,5862.5,1197Zm10.5,2h24a1,1,0,0,1,0,2h-24A1,1,0,0,1,5873,1199Zm-10.5,10a4.5,4.5,0,1,1-4.5,4.5A4.494,4.494,0,0,1,5862.5,1209Zm0,2a2.5,2.5,0,1,1-2.5,2.5A2.5,2.5,0,0,1,5862.5,1211Zm10.5,2h24a1,1,0,0,1,0,2h-24A1,1,0,0,1,5873,1213Z" transform="translate(-5858 -1181)"/>
</svg>
