<svg xmlns="http://www.w3.org/2000/svg" width="45" height="11" viewBox="0 0 45 11">
  <defs>
    <style>
      .cls-1 {
        fill: #fff;
        fill-rule: evenodd;
      }
    </style>
  </defs>
  <path id="nav-list" class="cls-1" d="M5696.5,1239a5.5,5.5,0,1,1-5.5,5.5A5.5,5.5,0,0,1,5696.5,1239Zm0,2a3.5,3.5,0,1,1-3.5,3.5A3.5,3.5,0,0,1,5696.5,1241Zm17-2a5.5,5.5,0,1,1-5.5,5.5A5.5,5.5,0,0,1,5713.5,1239Zm0,2a3.5,3.5,0,1,1-3.5,3.5A3.5,3.5,0,0,1,5713.5,1241Zm17-2a5.5,5.5,0,1,1-5.5,5.5A5.5,5.5,0,0,1,5730.5,1239Zm0,2a3.5,3.5,0,1,1-3.5,3.5A3.5,3.5,0,0,1,5730.5,1241Z" transform="translate(-5691 -1239)"/>
</svg>
